HIERARCHY
ROOT hips
{
	OFFSET -0.003675 0.299928 -0.021708
	CHANNELS 6 Xposition Yposition Zposition Xrotation Yrotation Zrotation
	JOINT LowerBack
	{
		OFFSET 0.000919 0.177588 0.009275
		CHANNELS 3 Xrotation Yrotation Zrotation
		JOINT spine
		{
			OFFSET 0.000919 0.177588 0.009275
			CHANNELS 3 Xrotation Yrotation Zrotation
			JOINT chest
			{
				OFFSET 0.000456 0.100015 0.004638
				CHANNELS 3 Xrotation Yrotation Zrotation
				JOINT neck
				{
					OFFSET 0.000456 0.100015 0.004638
					CHANNELS 3 Xrotation Yrotation Zrotation
					JOINT head
					{
						OFFSET 0.000924 0.155147 0.009274
						CHANNELS 6 Xposition Yposition Zposition Xrotation Yrotation Zrotation
						End Site
						{
							OFFSET 0.000000 0.153400 0.000000
						}
					}
				}
				JOINT shoulder.L
				{
					OFFSET 0.019937 0.078966 0.057518
					CHANNELS 6 Xposition Yposition Zposition Yrotation Xrotation Zrotation
					JOINT upper_arm.L
					{
						OFFSET 0.177024 -0.020465 -0.095062
						CHANNELS 6 Xposition Yposition Zposition Xrotation Yrotation Zrotation
						JOINT forearm.L
						{
							OFFSET 0.247100 -0.135500 -0.061800
							CHANNELS 3 Xrotation Yrotation Zrotation
							JOINT hand.L
							{
								OFFSET 0.217000 -0.143000 0.039300
								CHANNELS 3 Xrotation Yrotation Zrotation
								JOINT palm.01.L
								{
									OFFSET 0.021770 -0.038291 0.012954
									CHANNELS 6 Xposition Yposition Zposition Yrotation Xrotation Zrotation
									JOINT f_index.01.L
									{
										OFFSET 0.053215 -0.044137 0.008236
										CHANNELS 3 Xrotation Yrotation Zrotation
										JOINT f_index.02.L
										{
											OFFSET 0.036108 -0.024723 -0.010656
											CHANNELS 3 Xrotation Yrotation Zrotation
											JOINT f_index.03.L
											{
												OFFSET 0.021342 -0.014948 -0.010846
												CHANNELS 3 Xrotation Yrotation Zrotation
												End Site
												{
													OFFSET 0.015600 -0.009860 -0.013421
												}
											}
										}
									}
									JOINT thumb.01.L
									{
										OFFSET -0.009090 -0.002348 -0.024223
										CHANNELS 6 Xposition Yposition Zposition Xrotation Yrotation Zrotation
										JOINT thumb.02.L
										{
											OFFSET 0.019713 -0.035076 -0.011120
											CHANNELS 3 Xrotation Yrotation Zrotation
											JOINT thumb.03.L
											{
												OFFSET 0.024877 -0.021748 -0.005176
												CHANNELS 3 Xrotation Yrotation Zrotation
												End Site
												{
													OFFSET 0.016125 -0.013029 -0.001569
												}
											}
										}
									}
								}
								JOINT palm.02.L
								{
									OFFSET 0.032823 -0.025104 0.012281
									CHANNELS 6 Xposition Yposition Zposition Yrotation Xrotation Zrotation
									JOINT f_middle.01.L
									{
										OFFSET 0.055723 -0.038469 0.008037
										CHANNELS 3 Xrotation Yrotation Zrotation
										JOINT f_middle.02.L
										{
											OFFSET 0.038167 -0.027473 -0.015582
											CHANNELS 3 Xrotation Yrotation Zrotation
											JOINT f_middle.03.L
											{
												OFFSET 0.021707 -0.016587 -0.017037
												CHANNELS 3 Xrotation Yrotation Zrotation
												End Site
												{
													OFFSET 0.014112 -0.010584 -0.014294
												}
											}
										}
									}
								}
								JOINT palm.03.L
								{
									OFFSET 0.039230 -0.011402 0.008390
									CHANNELS 6 Xposition Yposition Zposition Yrotation Xrotation Zrotation
									JOINT f_ring.01.L
									{
										OFFSET 0.061796 -0.031470 0.007910
										CHANNELS 3 Xrotation Yrotation Zrotation
										JOINT f_ring.02.L
										{
											OFFSET 0.033092 -0.023401 -0.019127
											CHANNELS 3 Xrotation Yrotation Zrotation
											JOINT f_ring.03.L
											{
												OFFSET 0.021392 -0.015362 -0.017824
												CHANNELS 3 Xrotation Yrotation Zrotation
												End Site
												{
													OFFSET 0.008670 -0.007297 -0.014686
												}
											}
										}
									}
								}
								JOINT palm.04.L
								{
									OFFSET 0.043417 0.002450 0.002889
									CHANNELS 6 Xposition Yposition Zposition Yrotation Xrotation Zrotation
									JOINT f_pinky.01.L
									{
										OFFSET 0.069986 -0.026156 0.003627
										CHANNELS 3 Xrotation Yrotation Zrotation
										JOINT f_pinky.02.L
										{
											OFFSET 0.018520 -0.012813 -0.016429
											CHANNELS 3 Xrotation Yrotation Zrotation
											JOINT f_pinky.03.L
											{
												OFFSET 0.013822 -0.009796 -0.014947
												CHANNELS 3 Xrotation Yrotation Zrotation
												End Site
												{
													OFFSET 0.007238 -0.006103 -0.011657
												}
											}
										}
									}
								}
							}
						}
					}
				}
				JOINT shoulder.R
				{
					OFFSET -0.016662 0.078957 0.057696
					CHANNELS 6 Xposition Yposition Zposition Yrotation Xrotation Zrotation
					JOINT upper_arm.R
					{
						OFFSET -0.176972 -0.020537 -0.095144
						CHANNELS 6 Xposition Yposition Zposition Xrotation Yrotation Zrotation
						JOINT forearm.R
						{
							OFFSET -0.247100 -0.135500 -0.061800
							CHANNELS 3 Xrotation Yrotation Zrotation
							JOINT hand.R
							{
								OFFSET -0.217000 -0.143000 0.039300
								CHANNELS 3 Xrotation Yrotation Zrotation
								JOINT palm.01.R
								{
									OFFSET -0.021773 -0.038278 0.012988
									CHANNELS 6 Xposition Yposition Zposition Yrotation Xrotation Zrotation
									JOINT f_index.01.R
									{
										OFFSET -0.053212 -0.044139 0.008249
										CHANNELS 3 Xrotation Yrotation Zrotation
										JOINT f_index.02.R
										{
											OFFSET -0.036049 -0.024835 -0.010634
											CHANNELS 3 Xrotation Yrotation Zrotation
											JOINT f_index.03.R
											{
												OFFSET -0.021371 -0.014881 -0.010866
												CHANNELS 3 Xrotation Yrotation Zrotation
												End Site
												{
													OFFSET -0.015584 -0.009883 -0.013422
												}
											}
										}
									}
									JOINT thumb.01.R
									{
										OFFSET 0.009113 -0.002381 -0.024211
										CHANNELS 6 Xposition Yposition Zposition Xrotation Yrotation Zrotation
										JOINT thumb.02.R
										{
											OFFSET -0.019694 -0.035097 -0.011088
											CHANNELS 3 Xrotation Yrotation Zrotation
											JOINT thumb.03.R
											{
												OFFSET -0.024867 -0.021762 -0.005168
												CHANNELS 3 Xrotation Yrotation Zrotation
												End Site
												{
													OFFSET -0.016120 -0.013036 -0.001565
												}
											}
										}
									}
								}
								JOINT palm.02.R
								{
									OFFSET -0.032828 -0.025095 0.012286
									CHANNELS 6 Xposition Yposition Zposition Yrotation Xrotation Zrotation
									JOINT f_middle.01.R
									{
										OFFSET -0.055721 -0.038472 0.008040
										CHANNELS 3 Xrotation Yrotation Zrotation
										JOINT f_middle.02.R
										{
											OFFSET -0.038101 -0.027593 -0.015557
											CHANNELS 3 Xrotation Yrotation Zrotation
											JOINT f_middle.03.R
											{
												OFFSET -0.021730 -0.016530 -0.017054
												CHANNELS 3 Xrotation Yrotation Zrotation
												End Site
												{
													OFFSET -0.014096 -0.010608 -0.014293
												}
											}
										}
									}
								}
								JOINT palm.03.R
								{
									OFFSET -0.039192 -0.011488 0.008390
									CHANNELS 6 Xposition Yposition Zposition Yrotation Xrotation Zrotation
									JOINT f_ring.01.R
									{
										OFFSET -0.061839 -0.031387 0.007876
										CHANNELS 3 Xrotation Yrotation Zrotation
										JOINT f_ring.02.R
										{
											OFFSET -0.033068 -0.023437 -0.019125
											CHANNELS 3 Xrotation Yrotation Zrotation
											JOINT f_ring.03.R
											{
												OFFSET -0.021371 -0.015393 -0.017822
												CHANNELS 3 Xrotation Yrotation Zrotation
												End Site
												{
													OFFSET -0.008654 -0.007321 -0.014684
												}
											}
										}
									}
								}
								JOINT palm.04.R
								{
									OFFSET -0.043421 0.002443 0.002845
									CHANNELS 6 Xposition Yposition Zposition Yrotation Xrotation Zrotation
									JOINT f_pinky.01.R
									{
										OFFSET -0.069983 -0.026169 0.003599
										CHANNELS 3 Xrotation Yrotation Zrotation
										JOINT f_pinky.02.R
										{
											OFFSET -0.018501 -0.012842 -0.016428
											CHANNELS 3 Xrotation Yrotation Zrotation
											JOINT f_pinky.03.R
											{
												OFFSET -0.013806 -0.009821 -0.014946
												CHANNELS 3 Xrotation Yrotation Zrotation
												End Site
												{
													OFFSET -0.007226 -0.006121 -0.011655
												}
											}
										}
									}
								}
							}
						}
					}
				}
			}
		}
	}
	JOINT pelvis.L
	{
		OFFSET 0.000000 0.000000 0.000000
		CHANNELS 6 Xposition Yposition Zposition Xrotation Yrotation Zrotation
		JOINT thigh.L
		{
			OFFSET 0.101675 0.001054 -0.000000
			CHANNELS 3 Xrotation Yrotation Zrotation
			JOINT shin.L
			{
				OFFSET 0.000000 -0.534800 0.041000
				CHANNELS 3 Xrotation Yrotation Zrotation
				JOINT foot.L
				{
					OFFSET 0.000000 -0.452000 -0.044800
					CHANNELS 3 Xrotation Yrotation Zrotation
					JOINT toe.L
					{
						OFFSET -0.000000 -0.068500 0.109600
						CHANNELS 3 Xrotation Yrotation Zrotation
						End Site
						{
							OFFSET -0.000000 0.000000 0.067200
						}
					}
				}
				JOINT heel.L
				{
					OFFSET 0.000000 -0.452000 -0.044800
					CHANNELS 3 Xrotation Yrotation Zrotation
					JOINT heel.02.L
					{
						OFFSET -0.038000 -0.085200 0.016200
						CHANNELS 6 Xposition Yposition Zposition Xrotation Yrotation Zrotation
						End Site
						{
							OFFSET 0.080000 -0.000000 0.000000
						}
					}
				}
			}
		}
	}
	JOINT pelvis.R
	{
		OFFSET 0.000000 0.000000 0.000000
		CHANNELS 6 Xposition Yposition Zposition Xrotation Yrotation Zrotation
		JOINT thigh.R
		{
			OFFSET -0.094325 0.001054 0.000000
			CHANNELS 3 Xrotation Yrotation Zrotation
			JOINT shin.R
			{
				OFFSET 0.000000 -0.534800 0.041000
				CHANNELS 3 Xrotation Yrotation Zrotation
				JOINT foot.R
				{
					OFFSET 0.000000 -0.452000 -0.044800
					CHANNELS 3 Xrotation Yrotation Zrotation
					JOINT toe.R
					{
						OFFSET -0.000000 -0.068500 0.109600
						CHANNELS 3 Xrotation Yrotation Zrotation
						End Site
						{
							OFFSET -0.000000 0.000000 0.067200
						}
					}
				}
				JOINT heel.R
				{
					OFFSET 0.000000 -0.452000 -0.044800
					CHANNELS 3 Xrotation Yrotation Zrotation
					JOINT heel.02.R
					{
						OFFSET 0.038000 -0.085200 0.016200
						CHANNELS 6 Xposition Yposition Zposition Xrotation Yrotation Zrotation
						End Site
						{
							OFFSET -0.080000 0.000000 -0.000000
						}
					}
				}
			}
		}
	}
}
MOTION
Frames: 4
Frame Time: 0.041667
-0.004551 0.217529 0.003399 5.251275 3.481121 86.963348 0.000000 0.000001 0.000000 -0.000000 0.000000 0.000000 0.000000 0.000000 0.000000 0.000001 -0.000000 -0.000000 0.000924 0.155148 0.009274 -14.774478 0.033012 -20.590951 0.019937 0.078966 0.057518 -6.632359 6.797159 48.862142 0.177025 -0.020465 -0.095062 -32.827607 -23.460575 -11.742887 -1.357042 11.521657 63.557875 0.000001 -0.000002 -0.000002 0.021770 -0.038291 0.012954 0.000002 -0.000007 -0.000002 0.000002 0.000001 0.000007 -0.000003 -0.000002 0.000010 0.000005 -0.000001 0.000001 -0.009090 -0.002348 -0.024223 0.000003 0.000000 0.000002 -0.000003 -0.000001 0.000005 -0.000004 0.000001 0.000004 0.032823 -0.025104 0.012281 0.000001 0.000000 0.000002 0.000001 -0.000003 -0.000005 0.000001 -0.000004 -0.000003 -0.000000 -0.000003 0.000001 0.039230 -0.011402 0.008390 0.000002 -0.000005 0.000004 0.000001 0.000002 0.000001 -0.000002 0.000003 0.000001 0.000002 -0.000004 0.000003 0.043417 0.002450 0.002889 0.000000 -0.000001 -0.000003 0.000000 -0.000001 -0.000002 -0.000001 0.000003 -0.000003 0.000003 -0.000001 -0.000001 -0.016662 0.078957 0.057696 -6.956523 6.188550 -39.463399 -0.176972 -0.020537 -0.095144 -28.560429 8.174111 22.262196 16.783330 13.232044 -77.414805 0.000004 0.000002 -0.000000 -0.021773 -0.038278 0.012988 0.000001 -0.000004 0.000000 -0.000004 0.000003 0.000002 -0.000002 -0.000000 -0.000004 0.000001 0.000000 0.000003 0.009114 -0.002381 -0.024211 -0.000000 -0.000002 0.000001 -0.000000 -0.000001 0.000000 0.000001 -0.000002 -0.000001 -0.032828 -0.025095 0.012286 0.000001 -0.000003 0.000001 0.000001 0.000002 -0.000004 -0.000001 0.000000 -0.000000 -0.000003 0.000002 -0.000003 -0.039192 -0.011488 0.008390 0.000001 0.000004 0.000002 0.000003 0.000003 -0.000002 -0.000000 0.000001 0.000002 0.000002 0.000001 -0.000001 -0.043421 0.002443 0.002845 0.000001 -0.000002 0.000000 -0.000002 0.000003 0.000001 -0.000001 -0.000003 0.000000 -0.000001 0.000002 0.000003 -0.000000 0.000000 -0.000000 -1.749190 0.084773 -2.020563 46.429618 -0.151565 -4.152947 19.420666 -0.007177 0.074446 -0.000003 -0.000000 0.000000 -0.000000 -0.000000 -0.000001 -0.000002 -0.000001 -0.000000 -0.038000 -0.085200 0.016200 0.000003 0.000001 0.000000 -0.000000 0.000000 0.000000 -1.708928 0.083771 -0.786438 33.258995 0.203562 4.588500 36.161873 0.978153 -9.918533 0.000000 0.000000 -0.000000 0.000003 -0.000000 0.000000 0.000007 0.000000 -0.000000 0.038000 -0.085200 0.016200 -0.000001 -0.000000 -0.000000 
-0.004632 0.217265 0.003761 4.140973 3.332807 86.731340 -0.000000 0.000000 -0.000000 -0.000000 -0.000001 -0.000000 -0.000000 0.000000 0.000000 -0.000000 0.000000 0.000000 0.000924 0.155147 0.009274 -15.182025 0.036863 -19.575529 0.019937 0.078966 0.057518 -7.408075 6.636228 49.059128 0.177024 -0.020465 -0.095062 -30.580724 -26.450893 -7.977152 -3.525422 16.270894 61.113118 -0.000000 -0.000001 -0.000002 0.021770 -0.038291 0.012954 -0.000000 0.000002 0.000001 -0.000001 -0.000001 0.000001 -0.000003 0.000001 0.000007 -0.000001 0.000001 -0.000002 -0.009090 -0.002348 -0.024223 0.000003 -0.000001 0.000003 0.000001 -0.000000 -0.000004 -0.000002 0.000002 -0.000002 0.032823 -0.025104 0.012281 -0.000001 0.000003 0.000007 -0.000005 0.000003 -0.000007 -0.000006 0.000000 0.000001 0.000003 0.000001 0.000003 0.039230 -0.011402 0.008390 0.000000 -0.000002 0.000004 -0.000000 0.000000 0.000001 -0.000001 0.000008 -0.000000 0.000000 -0.000003 0.000005 0.043417 0.002450 0.002889 -0.000001 0.000003 -0.000004 -0.000005 -0.000006 -0.000002 0.000001 -0.000003 0.000001 0.000001 0.000000 -0.000001 -0.016662 0.078957 0.057696 -6.519044 5.841943 -38.923827 -0.176972 -0.020537 -0.095144 -27.686935 8.268384 21.229280 19.267284 13.902663 -80.461295 -0.000002 0.000003 0.000002 -0.021773 -0.038278 0.012988 -0.000001 -0.000001 0.000002 -0.000004 0.000003 0.000004 -0.000002 0.000001 -0.000008 0.000003 0.000000 0.000001 0.009114 -0.002381 -0.024212 -0.000000 0.000001 0.000004 -0.000002 -0.000002 0.000005 -0.000002 -0.000001 -0.000003 -0.032828 -0.025095 0.012286 0.000001 -0.000000 -0.000001 0.000004 0.000001 -0.000005 0.000001 0.000002 -0.000004 -0.000001 0.000001 -0.000002 -0.039192 -0.011488 0.008390 -0.000001 0.000005 -0.000000 -0.000005 0.000004 -0.000005 -0.000001 -0.000003 -0.000002 0.000002 0.000004 -0.000001 -0.043421 0.002443 0.002845 0.000000 0.000003 0.000002 -0.000003 0.000002 -0.000001 -0.000003 -0.000003 -0.000003 0.000002 -0.000001 0.000003 -0.000000 0.000000 -0.000000 -1.781266 0.014260 -1.166316 46.364400 -0.128439 -3.855201 17.775542 -0.069301 0.701236 0.000002 -0.000000 -0.000000 -0.000000 0.000001 0.000000 0.000005 -0.000000 0.000000 -0.038000 -0.085200 0.016200 -0.000000 -0.000000 0.000000 -0.000000 0.000000 -0.000000 -1.742579 0.013874 0.067864 33.609998 0.210697 4.708990 33.493175 0.948069 -9.610502 0.000002 -0.000000 0.000000 0.000000 0.000000 0.000000 0.000007 0.000000 -0.000000 0.038000 -0.085200 0.016200 0.000002 0.000000 0.000000 
-0.005204 0.218458 0.003985 -3.438562 5.856122 88.433895 -0.000001 -0.000000 -0.000000 -0.000001 0.000000 -0.000000 0.000001 -0.000000 0.000000 0.000001 -0.000000 -0.000000 0.000924 0.155148 0.009274 -14.715788 0.043358 -14.707366 0.019937 0.078966 0.057518 -12.018730 7.004305 52.374338 0.177024 -0.020465 -0.095062 -17.773894 -20.092899 1.702750 -0.664390 13.006508 49.295173 0.000001 -0.000001 0.000002 0.021770 -0.038291 0.012954 0.000002 -0.000005 -0.000004 -0.000001 -0.000000 0.000001 0.000000 -0.000000 0.000008 -0.000000 0.000002 -0.000003 -0.009090 -0.002348 -0.024223 -0.000002 -0.000001 0.000002 -0.000002 0.000000 -0.000000 0.000002 -0.000002 -0.000004 0.032823 -0.025104 0.012281 -0.000000 -0.000006 0.000004 0.000001 0.000001 -0.000005 -0.000005 0.000001 0.000003 -0.000000 -0.000003 -0.000001 0.039230 -0.011402 0.008390 0.000000 -0.000003 0.000003 -0.000000 0.000002 -0.000000 -0.000001 -0.000002 0.000003 0.000003 -0.000006 0.000003 0.043417 0.002450 0.002889 -0.000000 -0.000003 -0.000003 -0.000004 -0.000001 -0.000001 -0.000005 0.000000 0.000002 -0.000001 -0.000003 -0.000001 -0.016662 0.078957 0.057696 -16.194204 6.895478 -36.957057 -0.176972 -0.020537 -0.095144 -18.903829 16.972817 3.080219 3.314049 1.696557 -56.565987 -0.000001 0.000000 0.000002 -0.021773 -0.038278 0.012988 0.000001 -0.000000 -0.000005 -0.000003 -0.000002 -0.000001 0.000000 -0.000000 -0.000004 -0.000002 0.000006 0.000005 0.009114 -0.002381 -0.024211 -0.000000 -0.000003 0.000002 -0.000001 -0.000001 -0.000005 0.000002 -0.000001 -0.000001 -0.032828 -0.025095 0.012286 0.000002 -0.000000 -0.000003 -0.000002 0.000003 0.000001 0.000001 0.000001 -0.000007 -0.000002 0.000005 -0.000004 -0.039192 -0.011488 0.008390 0.000002 -0.000000 -0.000000 0.000002 0.000004 -0.000002 -0.000001 -0.000001 0.000002 -0.000002 0.000001 0.000002 -0.043421 0.002443 0.002845 0.000001 -0.000001 -0.000003 -0.000007 0.000000 -0.000001 0.000001 -0.000007 0.000000 -0.000004 0.000003 0.000001 -0.000000 0.000000 -0.000000 -1.822548 -0.047904 -0.422967 46.156684 0.074297 -1.199701 10.723925 -0.478965 4.840239 -0.000003 -0.000000 -0.000000 -0.000000 0.000000 0.000000 -0.000002 0.000000 0.000000 -0.038000 -0.085200 0.016200 0.000002 0.000000 -0.000000 -0.000000 0.000000 -0.000000 -1.784999 -0.047793 0.811250 31.016196 0.379766 6.762878 31.810759 0.536426 -5.419788 -0.000003 -0.000000 -0.000000 -0.000002 0.000000 0.000000 -0.000002 -0.000000 -0.000000 0.038000 -0.085200 0.016200 0.000001 -0.000000 0.000001 
-0.005538 0.219304 0.004347 -5.623820 6.142113 88.987871 0.000000 0.000000 -0.000000 -0.000001 -0.000000 -0.000000 0.000000 -0.000000 -0.000000 0.000000 -0.000001 -0.000000 0.000924 0.155147 0.009274 -14.859824 0.043414 -15.154568 0.019937 0.078966 0.057518 -12.305972 6.772061 51.328916 0.177024 -0.020465 -0.095062 -19.761855 -20.618833 -0.245561 -0.220822 10.351301 53.419726 -0.000003 0.000002 0.000003 0.021770 -0.038291 0.012954 0.000004 -0.000003 0.000001 -0.000001 -0.000002 0.000003 0.000000 -0.000000 0.000008 -0.000001 0.000002 0.000002 -0.009090 -0.002348 -0.024223 -0.000000 -0.000002 0.000000 -0.000005 -0.000001 -0.000002 0.000001 0.000000 0.000001 0.032823 -0.025104 0.012281 0.000003 -0.000001 0.000005 -0.000002 0.000003 -0.000002 -0.000007 -0.000002 0.000001 -0.000002 0.000003 -0.000001 0.039230 -0.011402 0.008390 0.000005 -0.000002 0.000003 0.000002 -0.000000 -0.000000 -0.000006 0.000003 0.000003 0.000001 -0.000005 0.000004 0.043417 0.002450 0.002889 0.000001 -0.000001 -0.000002 -0.000003 -0.000003 -0.000000 -0.000004 0.000006 -0.000002 -0.000004 -0.000001 -0.000000 -0.016662 0.078957 0.057696 -16.045035 6.577202 -35.780349 -0.176972 -0.020537 -0.095144 -20.813345 13.055429 8.777195 9.566037 5.273507 -73.180682 -0.000001 0.000002 0.000002 -0.021773 -0.038278 0.012988 -0.000002 -0.000002 0.000002 -0.000004 0.000001 0.000001 0.000001 0.000001 -0.000004 -0.000003 0.000000 0.000001 0.009114 -0.002381 -0.024212 -0.000003 -0.000001 -0.000001 -0.000000 -0.000002 0.000000 -0.000001 0.000000 -0.000004 -0.032828 -0.025095 0.012286 0.000000 -0.000000 -0.000003 0.000001 0.000003 0.000001 0.000002 -0.000006 0.000004 -0.000003 0.000003 -0.000006 -0.039192 -0.011488 0.008390 -0.000002 0.000002 0.000001 0.000001 0.000001 -0.000002 -0.000001 0.000001 -0.000000 -0.000002 -0.000000 0.000000 -0.043421 0.002443 0.002845 -0.000001 -0.000001 0.000000 -0.000004 0.000000 0.000003 0.000001 -0.000006 0.000002 -0.000000 -0.000005 -0.000000 -0.000000 0.000000 -0.000000 -1.830738 -0.151587 0.805993 46.990380 0.098762 -0.917312 8.520378 -0.538709 5.445445 -0.000003 0.000000 -0.000000 -0.000003 0.000000 0.000000 -0.000002 0.000000 -0.000000 -0.038000 -0.085200 0.016200 -0.000003 -0.000000 -0.000000 -0.000000 0.000000 -0.000000 -1.796385 -0.150747 2.040268 31.317059 0.389349 6.908577 32.137491 0.234311 -2.364077 0.000000 -0.000000 -0.000000 0.000004 -0.000000 0.000000 0.000005 -0.000000 -0.000000 0.038000 -0.085200 0.016200 0.000001 -0.000000 -0.000000 
